# xmcd
#
# Track frame offsets: 
#        150
#        18087
#        37492
#        58268
#        75861
#        121470
#        135522
#        148791
#        170404
#        188288
#        206564
#
# Disc length: 3035 seconds
#
# Revision: 0
# Processed by: cddbd v1.5.2PL0 Copyright (c) Steve Scherf et al.
# Submitted via: ExactAudioCopyFreeDBPlugin 1.0
#
DISCID=920bd90b
DTITLE=Albert King - Roadhouse Blues
DYEAR=2013
DGENRE=Blues
TTITLE0=I'll Play The Blues For You (Edit)
TTITLE1=I Can't Hear Nothing But The Blues
TTITLE2=Answer To The Laundromat Blues
TTITLE3=That's What The Blues Is All About
TTITLE4=Roadhouse Blues (Live)
TTITLE5=Killing Floor
TTITLE6=Bay Area Blues
TTITLE7=Drivin' Wheel
TTITLE8=Dust My Broom
TTITLE9=Hound Dog
TTITLE10=Match Box Blues (Live At Wattstax)
EXTD=
EXTT0=
EXTT1=
EXTT2=
EXTT3=
EXTT4=
EXTT5=
EXTT6=
EXTT7=
EXTT8=
EXTT9=
EXTT10=
PLAYORDER=
